<?xml version="1.0" encoding="utf-8"?>
<!-- Generator: Adobe Illustrator 24.0.1, SVG Export Plug-In . SVG Version: 6.00 Build 0)  -->
<svg version="1.1" id="Layer_1" xmlns="http://www.w3.org/2000/svg" xmlns:xlink="http://www.w3.org/1999/xlink" x="0px" y="0px"
	 viewBox="0 0 11 12" style="enable-background:new 0 0 11 12;" xml:space="preserve">
<style type="text/css">
	.st0{enable-background:new    ;}
	.st1{fill:#2D2D28;}
</style>
<g class="st0">
	<path class="st1" d="M4.9,5.8L0.3,1.3C0.3,1.2,0.2,1.1,0.2,1s0-0.2,0.1-0.3c0,0,0.1-0.1,0.1-0.1c0,0,0.1,0,0.2,0c0,0,0.1,0,0.1,0
		c0,0,0.1,0,0.1,0.1l4.5,4.5L10,0.7c0,0,0.1-0.1,0.1-0.1c0,0,0.1,0,0.1,0c0.1,0,0.1,0,0.2,0c0,0,0.1,0,0.1,0.1
		c0.1,0.1,0.1,0.2,0.1,0.3s0,0.2-0.1,0.3L6,5.8l4.5,4.5c0.1,0.1,0.1,0.2,0.1,0.3s0,0.2-0.1,0.3S10.4,11,10.3,11
		c-0.1,0-0.2,0-0.3-0.1L5.4,6.4l-4.5,4.5C0.8,11,0.7,11,0.6,11s-0.2,0-0.3-0.1c-0.1-0.1-0.1-0.2-0.1-0.3s0-0.2,0.1-0.3L4.9,5.8z"/>
</g>
</svg>
